<mxfile host="Electron" modified="2023-09-14T08:03:05.295Z" agent="Mozilla/5.0 (Windows NT 10.0; Win64; x64) AppleWebKit/537.36 (KHTML, like Gecko) draw.io/21.6.8 Chrome/114.0.5735.289 Electron/25.5.0 Safari/537.36" etag="ZvWHIsekG6tqRY0RvUIS" version="21.6.8" type="device">
  <diagram name="Страница — 1" id="13Spd-eURqFnXCPOttuD">
    <mxGraphModel dx="607" dy="367" grid="1" gridSize="10" guides="1" tooltips="1" connect="1" arrows="1" fold="1" page="1" pageScale="1" pageWidth="827" pageHeight="1169" math="0" shadow="0">
      <root>
        <mxCell id="0" />
        <mxCell id="1" parent="0" />
        <mxCell id="xrxAt8YI_ag0OqCP8nIG-3" style="edgeStyle=orthogonalEdgeStyle;rounded=0;orthogonalLoop=1;jettySize=auto;html=1;exitX=0.5;exitY=0.5;exitDx=0;exitDy=0;exitPerimeter=0;" edge="1" parent="1" source="AoE8ISK4It_9-whyjBbq-1" target="xrxAt8YI_ag0OqCP8nIG-1">
          <mxGeometry relative="1" as="geometry" />
        </mxCell>
        <mxCell id="xrxAt8YI_ag0OqCP8nIG-4" style="edgeStyle=orthogonalEdgeStyle;rounded=0;orthogonalLoop=1;jettySize=auto;html=1;exitX=0.5;exitY=0.5;exitDx=0;exitDy=0;exitPerimeter=0;entryX=1;entryY=0.5;entryDx=0;entryDy=0;" edge="1" parent="1" source="AoE8ISK4It_9-whyjBbq-1" target="xrxAt8YI_ag0OqCP8nIG-2">
          <mxGeometry relative="1" as="geometry" />
        </mxCell>
        <mxCell id="AoE8ISK4It_9-whyjBbq-1" value="Клиент" style="shape=umlActor;verticalLabelPosition=bottom;verticalAlign=top;html=1;outlineConnect=0;" parent="1" vertex="1">
          <mxGeometry x="180" y="490" width="30" height="60" as="geometry" />
        </mxCell>
        <mxCell id="xrxAt8YI_ag0OqCP8nIG-9" style="edgeStyle=orthogonalEdgeStyle;rounded=0;orthogonalLoop=1;jettySize=auto;html=1;exitX=0.5;exitY=0.5;exitDx=0;exitDy=0;exitPerimeter=0;entryX=1;entryY=0.5;entryDx=0;entryDy=0;" edge="1" parent="1" source="AoE8ISK4It_9-whyjBbq-2" target="xrxAt8YI_ag0OqCP8nIG-8">
          <mxGeometry relative="1" as="geometry" />
        </mxCell>
        <mxCell id="xrxAt8YI_ag0OqCP8nIG-10" style="edgeStyle=orthogonalEdgeStyle;rounded=0;orthogonalLoop=1;jettySize=auto;html=1;exitX=0.5;exitY=0.5;exitDx=0;exitDy=0;exitPerimeter=0;entryX=0;entryY=0.5;entryDx=0;entryDy=0;" edge="1" parent="1" source="AoE8ISK4It_9-whyjBbq-2" target="xrxAt8YI_ag0OqCP8nIG-7">
          <mxGeometry relative="1" as="geometry" />
        </mxCell>
        <mxCell id="xrxAt8YI_ag0OqCP8nIG-12" style="edgeStyle=orthogonalEdgeStyle;rounded=0;orthogonalLoop=1;jettySize=auto;html=1;exitX=0.5;exitY=0;exitDx=0;exitDy=0;exitPerimeter=0;entryX=0.5;entryY=1;entryDx=0;entryDy=0;" edge="1" parent="1" source="AoE8ISK4It_9-whyjBbq-2" target="xrxAt8YI_ag0OqCP8nIG-11">
          <mxGeometry relative="1" as="geometry" />
        </mxCell>
        <mxCell id="AoE8ISK4It_9-whyjBbq-2" value="Сотрудник" style="shape=umlActor;verticalLabelPosition=bottom;verticalAlign=top;html=1;outlineConnect=0;" parent="1" vertex="1">
          <mxGeometry x="590" y="620" width="30" height="60" as="geometry" />
        </mxCell>
        <mxCell id="eXKC9IJ0xVhaVRjGWwMC-9" style="edgeStyle=orthogonalEdgeStyle;rounded=0;orthogonalLoop=1;jettySize=auto;html=1;exitX=0.5;exitY=0.5;exitDx=0;exitDy=0;exitPerimeter=0;entryX=0;entryY=0.5;entryDx=0;entryDy=0;" parent="1" source="AoE8ISK4It_9-whyjBbq-3" edge="1">
          <mxGeometry relative="1" as="geometry">
            <mxPoint x="239.9999999999999" y="649.9999999999999" as="targetPoint" />
          </mxGeometry>
        </mxCell>
        <mxCell id="eXKC9IJ0xVhaVRjGWwMC-11" style="edgeStyle=orthogonalEdgeStyle;rounded=0;orthogonalLoop=1;jettySize=auto;html=1;exitX=0.5;exitY=0.5;exitDx=0;exitDy=0;exitPerimeter=0;entryX=1;entryY=0.5;entryDx=0;entryDy=0;" parent="1" source="AoE8ISK4It_9-whyjBbq-3" edge="1">
          <mxGeometry relative="1" as="geometry">
            <mxPoint x="150.0000000000001" y="649.9999999999999" as="targetPoint" />
          </mxGeometry>
        </mxCell>
        <mxCell id="AoE8ISK4It_9-whyjBbq-3" value="ИС" style="shape=umlActor;verticalLabelPosition=bottom;verticalAlign=top;html=1;outlineConnect=0;" parent="1" vertex="1">
          <mxGeometry x="180" y="620" width="30" height="60" as="geometry" />
        </mxCell>
        <mxCell id="xrxAt8YI_ag0OqCP8nIG-1" value="Сделать заказ" style="ellipse;whiteSpace=wrap;html=1;" vertex="1" parent="1">
          <mxGeometry x="240" y="480" width="120" height="80" as="geometry" />
        </mxCell>
        <mxCell id="xrxAt8YI_ag0OqCP8nIG-2" value="Отменить заказ" style="ellipse;whiteSpace=wrap;html=1;" vertex="1" parent="1">
          <mxGeometry x="30" y="480" width="120" height="80" as="geometry" />
        </mxCell>
        <mxCell id="xrxAt8YI_ag0OqCP8nIG-5" value="Сохранить заказ в БД" style="ellipse;whiteSpace=wrap;html=1;" vertex="1" parent="1">
          <mxGeometry x="30" y="610" width="120" height="80" as="geometry" />
        </mxCell>
        <mxCell id="xrxAt8YI_ag0OqCP8nIG-6" value="Проверить наличие клиента в базе" style="ellipse;whiteSpace=wrap;html=1;" vertex="1" parent="1">
          <mxGeometry x="240" y="610" width="120" height="80" as="geometry" />
        </mxCell>
        <mxCell id="xrxAt8YI_ag0OqCP8nIG-7" value="Оформить заказ" style="ellipse;whiteSpace=wrap;html=1;" vertex="1" parent="1">
          <mxGeometry x="660" y="610" width="120" height="80" as="geometry" />
        </mxCell>
        <mxCell id="xrxAt8YI_ag0OqCP8nIG-8" value="Ответить на телефонные звонки" style="ellipse;whiteSpace=wrap;html=1;" vertex="1" parent="1">
          <mxGeometry x="425" y="610" width="120" height="80" as="geometry" />
        </mxCell>
        <mxCell id="xrxAt8YI_ag0OqCP8nIG-11" value="Предоставить информацию о ценах" style="ellipse;whiteSpace=wrap;html=1;" vertex="1" parent="1">
          <mxGeometry x="545" y="500" width="120" height="80" as="geometry" />
        </mxCell>
      </root>
    </mxGraphModel>
  </diagram>
</mxfile>
